<svg width="944" height="480" viewBox="0 0 944 480" fill="none" xmlns="http://www.w3.org/2000/svg">
<g clip-path="url(#clip0_177_717)">
<mask id="mask0_177_717" style="mask-type:luminance" maskUnits="userSpaceOnUse" x="0" y="0" width="944" height="480">
<path d="M944 0H0V480H944V0Z" fill="white"/>
</mask>
<g mask="url(#mask0_177_717)">
<path d="M922.192 -31.0625H-21.8086V498.035H922.192V-31.0625Z" fill="#FAFAFA"/>
<path d="M944 0H0V366.538H944V0Z" fill="#7EA6A7"/>
<path d="M944.454 366.784H-0.0234375V498.024H944.454V366.784Z" fill="#2F7E7A"/>
<path d="M51.2473 345.379C80.5281 345.379 104.264 338.899 104.264 330.905C104.264 322.911 80.5281 316.432 51.2473 316.432C21.9667 316.432 -1.77002 322.911 -1.77002 330.905C-1.77002 338.899 21.9667 345.379 51.2473 345.379Z" fill="#010101"/>
<path d="M55.8847 350.975C55.8847 350.975 80.5762 322.528 75.1718 310.229C69.7674 297.931 66.4457 251.164 47.2766 257.249C39.0992 259.841 30.0722 265.085 22.4081 270.235C10.0653 278.536 4.7789 294.08 9.6582 308.095C15.8355 325.844 28.845 347.442 55.8847 350.975Z" fill="#2F7E7A" stroke="#010101" stroke-miterlimit="10"/>
<path d="M-54.4629 293.086L-52.1501 309.229C-47.3239 308.26 -39.8073 306.831 -30.5443 305.385C-7.33369 301.769 -1.12689 302.322 13.098 298.53C24.5971 295.461 35.2289 291.352 40.4386 286.167C54.3272 272.328 53.5543 257.719 53.5543 257.719C76.9596 231.811 52.6693 196.456 42.7514 196.215C-8.28949 194.992 -24.5322 221.117 -40.3501 240.336C-48.5452 250.288 -53.2888 262.616 -53.7844 275.485C-54.0086 281.352 -54.2328 287.219 -54.4629 293.086Z" fill="#3EBFB6" stroke="#010101" stroke-miterlimit="10"/>
<path d="M190.063 254.609C190.063 254.609 207.809 242.31 222.465 246.156C237.121 250 236.678 251.834 236.678 251.834L237.894 249.23C237.894 249.23 225.675 232.681 190.505 248.642C155.341 264.603 190.063 254.609 190.063 254.609Z" fill="#2F7E7A" stroke="#010101" stroke-miterlimit="10"/>
<path d="M-66.0918 216.937C-66.0918 216.937 -66.8647 203.099 -59.1475 196.95C-51.4303 190.8 -27.5117 173.887 -19.8004 177.731C-12.0891 181.576 -16.8268 195.28 -26.7447 201.565C-35.2289 206.944 -31.9308 220.794 -22.7681 212.27C-21.8713 211.435 -21.2636 210.336 -21.0099 209.137C-19.7945 203.41 -15.399 184.798 -9.64057 185.086C-2.83197 185.42 0.849633 198.678 0.849633 198.678C0.849633 198.678 0.938131 223.175 -1.29207 235.397C-5.92357 260.765 -48.3564 274.603 -48.3564 274.603L-66.0918 216.937Z" fill="#2F7E7A" stroke="#010101" stroke-miterlimit="10"/>
<path d="M176.598 330.141C175.337 330.829 174.139 331.628 173.047 332.563C169.95 335.22 165.978 339.735 167.814 343.55C170.333 348.777 178.339 356.266 208.576 340.717C257.73 315.438 257.954 303.045 257.954 303.045C257.954 303.045 262.686 299.088 267.871 294.092C274.344 287.848 281.53 279.977 281.1 276.137C280.327 269.218 221.25 270.565 196.151 279.83C174.511 287.813 162.18 308.295 158.397 315.503C157.394 317.413 156.787 319.501 156.645 321.652C156.332 326.396 156.922 332.375 166.45 331.299C174.634 330.376 181.484 323.868 181.838 319.859C182.133 316.555 189.283 315.35 188.771 319.412C188.28 323.392 179.921 328.324 176.598 330.141Z" fill="#3EBFB6" stroke="#010101" stroke-miterlimit="10"/>
<path d="M60.3451 104.939C60.3451 104.939 72.0212 92.9932 62.7582 78.4725C53.4952 63.9517 42.6982 50.1128 45.011 43.9636C47.3238 37.8142 53.4952 27.05 56.5868 24.7455C59.6784 22.441 78.1926 13.9813 84.364 13.2112C90.5354 12.441 90.5354 12.441 90.5354 12.441C90.5354 12.441 82.8182 16.2859 80.5054 19.3605C78.1926 22.4352 72.0212 26.2799 69.7025 27.8143C67.3838 29.3487 64.304 28.5844 59.6725 33.9636C55.041 39.3427 51.9553 44.7278 49.6425 44.7278C47.3297 44.7278 63.5311 71.6354 63.5311 71.6354C63.5311 71.6354 78.9596 94.6982 66.6168 103.922C58.0382 110.336 60.3451 104.939 60.3451 104.939Z" fill="#3EBFB6" stroke="#010101" stroke-miterlimit="10"/>
<path d="M-18.2547 78.5548C-18.2547 78.5548 -19.0276 72.4056 -8.22469 68.5608C2.57821 64.7159 22.6382 51.6472 24.951 47.8025C27.2638 43.9577 35.7539 41.6532 39.6125 43.9577C43.4711 46.2622 43.4711 46.2622 43.4711 46.2622C43.4711 46.2622 28.8096 54.716 26.4968 57.7966C24.184 60.8712 2.57821 66.2503 1.03831 71.6354C-0.501594 77.0204 -4.36019 79.3249 -5.13309 80.0892C-5.90599 80.8534 -18.2547 78.5548 -18.2547 78.5548Z" fill="#3EBFB6" stroke="#010101" stroke-miterlimit="10"/>
<path d="M28.0366 35.5039C28.0366 35.5039 43.4651 31.6591 48.0966 30.1247C52.7281 28.5903 55.8138 26.2799 55.8138 26.2799L45.0109 45.498L19.3164 54.4867L-13.6587 71.6942C-13.6587 71.6942 3.34515 53.9517 10.2895 52.4173C17.2337 50.883 21.3873 49.3192 24.178 45.498C26.9687 41.6767 21.8652 35.5039 28.0366 35.5039Z" fill="#2F7E7A" stroke="#010101" stroke-miterlimit="10"/>
<path d="M106.076 97.8315C106.076 97.8315 87.7507 70.4949 84.4408 58.5667C81.2666 47.1382 59.5369 46.415 65.4133 23.6285C65.4133 23.6285 95.6744 19.8308 115.504 33.9048C135.335 47.9788 142.019 58.3314 149.364 61.6825C156.71 65.0334 170.521 73.0816 169.719 80.8946C167.519 102.341 117.091 107.884 106.076 97.8315Z" fill="#3EBFB6" stroke="#010101" stroke-miterlimit="10"/>
<path d="M164.604 123.41C164.604 123.41 170.775 128.025 175.407 113.416C180.038 98.8076 245.351 66.6913 220.135 133.158C216.394 143.017 223.267 164.897 206.73 176.408C190.723 187.549 170.652 208.572 161.914 217.467C157.913 221.535 152.438 223.822 146.722 223.798C137.363 223.763 115.764 230 113.475 223.963C108.276 210.218 92.0695 167.72 90.1402 159.166C84.8361 135.621 101.899 119.296 113.522 99.2955C120.543 87.2085 128.137 77.526 143.842 70.9887C159.643 64.4103 186.198 84.2103 174.238 101.506C162.598 118.354 161.129 119.954 164.604 123.41Z" fill="#2F7E7A" stroke="#010101" stroke-miterlimit="10"/>
<path d="M83.5085 165.274C86.1576 165.121 84.1339 167.602 109.563 144.833C110.253 144.216 114.194 141.9 115.262 141.523C117.351 140.789 175.042 128.684 147.27 190.388C147.27 190.388 114.867 248.819 54.6811 256.502C-5.50479 264.186 -5.49889 260.347 -5.49889 260.347C-5.49889 260.347 -19.3875 204.228 -7.81169 181.929C3.76411 159.63 7.61681 128.883 54.6811 107.355C101.309 86.0327 131.275 103.939 85.3139 158.842C84.0985 160.306 81.6795 165.38 83.5085 165.274Z" fill="#3EBFB6" stroke="#010101" stroke-miterlimit="10"/>
<path d="M-9.63469 185.08C-9.63469 185.08 -10.4312 178.061 13.8886 177.696C38.2084 177.332 60.6107 178.166 67.5019 176.509" stroke="#010101" stroke-miterlimit="10"/>
<path d="M73.9506 247.449C81.7917 240.218 82.1103 165.426 82.1103 165.426C82.1103 165.426 129.8 193.04 126.271 218.813" stroke="#010101" stroke-miterlimit="10"/>
<path d="M70.7586 173.78C70.7586 173.78 74.3871 228.931 54.2681 256.914" stroke="#010101" stroke-miterlimit="10"/>
<path d="M46.9051 193.646C46.9051 193.646 60.1919 203.216 38.6392 258.53" stroke="#010101" stroke-miterlimit="10"/>
<path d="M21.9952 219.73C21.9952 219.73 31.1461 234.921 14.5671 260.624" stroke="#010101" stroke-miterlimit="10"/>
<path d="M-11.9653 220.165C-11.9653 220.165 5.0444 213.122 27.1517 213.486" stroke="#010101" stroke-miterlimit="10"/>
<path d="M0.991211 160.624C0.991211 160.624 26.0485 159.154 42.6275 163.928C59.2065 168.701 68.5108 171.77 77.2723 168.925" stroke="#010101" stroke-miterlimit="10"/>
<path d="M12.4136 140.794C12.4136 140.794 42.6275 147.402 54.0499 155.116C65.4723 162.822 82.6413 165.351 82.6413 165.351" stroke="#010101" stroke-miterlimit="10"/>
<path d="M-13.0095 207.984C-13.0095 207.984 10.4489 195.268 45.2176 195.268" stroke="#010101" stroke-miterlimit="10"/>
<path d="M93.1019 99.4072C93.1019 99.4072 99.2497 132.758 87.9276 148.825C86.1517 151.341 80.6175 162.282 82.7297 164.91M82.7297 164.91C82.8949 165.115 82.948 164.763 82.7297 164.91ZM82.7297 164.91C76.9831 168.807 18.1778 209.701 -5.90601 260.758" stroke="#010101" stroke-miterlimit="10"/>
<path d="M149.576 147.272C149.576 147.272 142.732 142.106 125.794 146.449C106.159 151.482 98.6835 169.571 84.3347 166.567C83.0898 166.309 93.5859 173.251 112.642 167.226C131.942 161.123 152.716 173.91 152.716 173.91" stroke="#010101" stroke-miterlimit="10"/>
<path d="M154.822 162.152C154.822 162.152 148.733 152.047 125.522 155.662C102.312 159.277 100.506 172.111 83.4023 166.05" stroke="#010101" stroke-miterlimit="10"/>
<path d="M85.8154 167.226C90.6298 170.971 94.158 169.936 111.923 174.092C129.688 178.249 141.913 198.478 141.913 198.478" stroke="#010101" stroke-miterlimit="10"/>
<path d="M25.2578 126.215C25.2578 126.215 55.4953 121.177 80.352 163.316C80.9479 164.328 81.4671 165.303 82.6412 165.356" stroke="#010101" stroke-miterlimit="10"/>
<path d="M48.917 110.459C48.917 110.459 81.5971 105.333 80.5587 160.73C80.5233 162.528 80.836 165.421 82.6414 165.351" stroke="#010101" stroke-miterlimit="10"/>
<path d="M73.7338 100.435C73.7338 100.435 85.6813 110.018 84.9733 129.883C84.2594 150.083 79.8344 164.685 83.516 165.027C83.516 165.027 108.13 216.914 99.5994 234.256" stroke="#010101" stroke-miterlimit="10"/>
<path d="M279.288 274.28C279.288 274.28 266.497 275.944 256.255 283.51C254.166 285.05 251.788 286.232 249.24 286.749C220.371 292.616 191.496 315.091 188.145 317.319" stroke="#010101" stroke-miterlimit="10"/>
<path d="M261.529 271.869C261.529 271.869 251.281 280.018 249.913 286.508" stroke="#010101" stroke-miterlimit="10"/>
<path d="M249.24 286.749C249.24 286.749 261.211 289.206 274.97 286.778" stroke="#010101" stroke-miterlimit="10"/>
<path d="M232.041 292.105C232.041 292.105 243.122 297.984 265.329 296.385" stroke="#010101" stroke-miterlimit="10"/>
<path d="M214.819 300.03C214.819 300.03 232.036 312.669 256.243 306.895" stroke="#010101" stroke-miterlimit="10"/>
<path d="M202.588 307.589C202.588 307.589 225.699 321.023 246.668 317.031" stroke="#010101" stroke-miterlimit="10"/>
<path d="M196.942 311.4C196.942 311.4 211.922 333.85 230.814 328.148" stroke="#010101" stroke-miterlimit="10"/>
<path d="M195.154 312.234C195.154 312.234 195.331 330.482 211.981 338.847" stroke="#010101" stroke-miterlimit="10"/>
<path d="M192.718 314.35C193.013 314.585 193.509 317.713 193.19 320.07C192.122 327.942 190.122 342.457 195.29 346.602" stroke="#010101" stroke-miterlimit="10"/>
<path d="M190.399 316.079C190.399 316.079 191.154 317.455 190.517 321.54C189.213 329.846 180.511 344.121 183.838 349.565" stroke="#010101" stroke-miterlimit="10"/>
<path d="M188.835 317.119C188.835 317.119 190.039 319.347 189.107 321.646C185.957 329.447 167.637 342.04 170.964 347.489" stroke="#010101" stroke-miterlimit="10"/>
<path d="M211.338 275.731C211.338 275.731 202.588 293.327 204.719 305.914" stroke="#010101" stroke-miterlimit="10"/>
<path d="M225.522 273.557C225.522 273.557 217.286 284.403 222.094 296.755" stroke="#010101" stroke-miterlimit="10"/>
<path d="M244.738 271.858C244.738 271.858 234.248 276.796 239.062 289.147" stroke="#010101" stroke-miterlimit="10"/>
<path d="M195.668 312.057C195.668 312.057 182.098 293.046 185.083 285.367" stroke="#010101" stroke-miterlimit="10"/>
<path d="M198.163 310.359C198.163 310.359 191.213 291.823 197.408 279.489" stroke="#010101" stroke-miterlimit="10"/>
<path d="M194.033 312.969C194.033 312.969 175.307 302.863 173.118 295.068" stroke="#010101" stroke-miterlimit="10"/>
<path d="M192.128 314.409C192.128 314.409 167.519 311.734 164.916 305.068" stroke="#010101" stroke-miterlimit="10"/>
<path d="M190.434 315.644C190.434 315.644 182.741 313.527 173.407 316.12C169.466 317.213 161.33 322.186 157.2 318.865" stroke="#010101" stroke-miterlimit="10"/>
<path d="M188.824 316.713C188.824 316.713 180.905 315.238 174.557 321.17C170.752 324.726 163.631 330.094 158.232 329.383" stroke="#010101" stroke-miterlimit="10"/>
<path d="M237.517 248.842C237.517 248.842 249.859 238.077 252.946 234.233C256.031 230.388 259.117 247.302 251.399 254.991C243.683 262.681 202.789 301.887 202.789 301.887C202.789 301.887 204.743 314.438 202.759 315.685C200.86 316.878 193.26 317.624 189.29 315.343C188.346 314.797 237.517 248.842 237.517 248.842Z" fill="#3EBFB6" stroke="#010101" stroke-miterlimit="10"/>
<path d="M204.813 299.13C202.735 301.128 201.326 303.716 200.801 306.543C199.898 311.435 199.249 318.148 203.338 315.097C209.509 310.482 217.227 304.333 224.17 298.183C231.114 292.034 240.372 288.96 247.317 282.04C254.26 275.121 259.659 245.908 259.659 245.908C278.946 243.604 278.179 224.38 278.179 224.38C288.982 213.616 282.811 208.237 282.811 208.237C282.811 208.237 261.978 217.46 255.806 227.455C255.275 228.314 254.821 229.166 254.432 230.018C250.219 239.153 252.898 248.231 246.55 256.666C240.797 264.304 213.91 290.37 204.813 299.13Z" fill="#2F7E7A" stroke="#010101" stroke-miterlimit="10"/>
<path d="M129.269 245.68C128.749 246.596 128.549 247.684 128.832 248.701C129.623 251.529 133.328 251.993 136.573 248.789C137.759 247.619 138.65 245.344 139.564 241.923C142.65 230.388 138.018 233.469 148.048 218.09C158.078 202.711 182.77 230.388 182.77 230.388C182.77 230.388 222.27 268.66 192.027 302.651C156.426 342.669 84.2047 358.947 84.6649 356.666C86.96 345.232 38.4207 281.382 55.7844 249.177C60.3097 240.782 80.8535 211.453 105.616 208.09C122.59 205.785 145.577 206.843 137.859 229.906C134.183 240.911 130.449 243.581 129.269 245.68Z" fill="#2F7E7A" stroke="#010101" stroke-miterlimit="10"/>
<path d="M-76.0805 135.375C-77.0422 134.521 -77.3254 133.146 -76.7708 131.988C-71.8974 121.818 -47.6838 74.8805 -16.7147 76.2562C18.0068 77.7965 31.1225 75.486 36.521 70.877C41.9195 66.2679 70.4696 73.9517 58.8938 90.8652C47.318 107.779 34.9811 97.7787 24.9511 102.388C23.9127 102.864 23.01 103.334 22.2371 103.793C19.3992 105.469 21.0984 109.813 24.3198 109.096C29.3997 107.961 36.3322 107.061 40.3796 109.307C46.1439 112.499 47.2177 121.559 47.3239 123.917C47.4301 126.268 43.5538 156.28 -2.05326 160.047C-41.5419 163.31 -69.3309 141.329 -76.0805 135.375Z" fill="#3EBFB6" stroke="#010101" stroke-miterlimit="10"/>
<path d="M795.397 477.771L735.571 534.778L738.16 489.047L795.397 477.771Z" fill="#7DD8DB" stroke="#010101" stroke-miterlimit="10"/>
<path d="M666.818 472.968L724.125 482.95C724.136 482.95 724.142 482.962 724.142 482.974L682.005 975.947C682.005 975.958 681.992 975.969 681.975 975.964L649.242 968.197C649.23 968.197 649.225 968.186 649.225 968.175L666.794 472.986C666.789 472.974 666.8 472.968 666.818 472.968Z" fill="#B49BC8" stroke="#010101" stroke-miterlimit="10"/>
<path d="M837.398 441.44L882.664 397.389C882.705 397.348 882.776 397.384 882.769 397.443L835.552 752.538C835.587 752.549 835.547 752.573 835.552 752.538L809.987 746.6C809.958 746.593 809.941 746.564 809.941 746.535L837.387 441.475C837.381 441.463 837.387 441.451 837.398 441.44Z" fill="#B49BC8"/>
<path d="M835.552 752.538L882.769 397.443C882.776 397.384 882.705 397.348 882.664 397.389L837.398 441.44C837.387 441.451 837.381 441.463 837.387 441.475L809.941 746.535C809.941 746.564 809.958 746.593 809.987 746.6L835.552 752.538ZM835.552 752.538C835.547 752.573 835.587 752.549 835.552 752.538Z" stroke="#010101" stroke-miterlimit="10"/>
<path d="M18.0007 352.028L48.3562 356.566C48.3739 356.566 48.3857 356.584 48.3857 356.595L108.755 762.314C108.761 762.338 108.737 762.361 108.713 762.356L86.6118 757.111C86.6 757.105 86.5882 757.094 86.5823 757.082L17.9594 352.069C17.9535 352.046 17.9771 352.022 18.0007 352.028Z" fill="#B49BC8" stroke="#010101" stroke-miterlimit="10"/>
<path d="M55.2534 411.345L92.5827 418.535L127.617 751.32L108.796 762.356C108.785 762.361 108.766 762.356 108.761 762.337L55.2534 411.345Z" fill="#9C6FE2" stroke="#010101" stroke-miterlimit="10"/>
<path d="M334.087 468.447L351.587 474.408C351.728 474.455 351.828 474.59 351.828 474.738L353.416 607.765C353.416 607.888 353.351 608.006 353.244 608.07L341.787 615.154C341.557 615.295 341.256 615.142 341.245 614.872L333.61 468.794C333.604 468.547 333.851 468.365 334.087 468.447Z" fill="#9C6FE2" stroke="#010101" stroke-miterlimit="10"/>
<path d="M335.839 468.63L341.079 615.043C341.079 615.054 341.068 615.06 341.055 615.06L323.137 609.811C323.132 609.811 323.125 609.804 323.125 609.793L311.514 465.679C311.514 465.666 311.52 465.66 311.531 465.66L335.822 468.612C335.828 468.612 335.834 468.617 335.839 468.63Z" fill="#B49BC8" stroke="#010101" stroke-miterlimit="10"/>
<path d="M882.787 397.266L900.629 379.182L846.975 741.973L835.965 752.261C835.735 752.479 835.357 752.285 835.399 751.973L882.787 397.266Z" fill="#9C6FE2" stroke="#010101" stroke-miterlimit="10"/>
<path d="M736.379 455.655L-36.0903 318.289C-47.7251 316.219 -41.7425 310.84 -23.3168 306.366L285.531 231.329C296.233 228.731 313.043 227.537 323.361 228.63L936.896 293.716C954.166 295.549 964.384 300.546 959.41 304.961L800.182 446.284C789.615 455.661 760.687 459.976 736.379 455.655Z" fill="#7DD8DB" stroke="#010101" stroke-miterlimit="10"/>
<path d="M48.3857 356.573L666.789 472.962L665.072 541.428L55.2533 411.345L48.3857 356.573Z" fill="#7DD8DB" stroke="#010101" stroke-miterlimit="10"/>
<path d="M962.319 303.903L961.982 324.832C961.965 328.007 960.608 331.023 958.243 333.128L797.018 476.801C796.334 477.412 795.573 477.936 794.759 478.365C794.759 478.365 794.606 478.441 794.559 478.47C782.386 486.277 755.135 490.123 741.971 488.635C741.676 488.6 741.4 488.558 741.105 488.5L-36.7866 342.269C-39.7012 341.828 -43.3356 340.529 -42.8931 337.601L-42.6689 318.113C-42.2146 315.185 -39.4888 313.18 -36.5624 313.622L752.167 456.531C754.87 457.018 757.606 457.231 760.357 457.142C768.563 456.878 785.644 455.385 796.494 446.184L962.207 302.387C962.473 302.151 962.319 303.545 962.319 303.903Z" fill="#7DD8DB" stroke="#010101" stroke-miterlimit="10"/>
<path d="M319.483 235.826C316.385 267.373 291.169 288.977 256.506 288.977C221.844 288.977 195.489 267.49 193.96 235.826C191.942 193.904 219.867 183.945 254.53 183.945C289.192 183.945 323.955 190.236 319.483 235.826Z" fill="#6D9BF5" stroke="#010101" stroke-miterlimit="10"/>
<path d="M257.64 211.3C281.582 211.3 300.992 206.001 300.992 199.466C300.992 192.929 281.582 187.631 257.64 187.631C233.696 187.631 214.286 192.929 214.286 199.466C214.286 206.001 233.696 211.3 257.64 211.3Z" fill="#010101"/>
<path d="M163.599 28.4786C162.295 24.3457 161.215 16.809 173.694 23.1994C174.903 23.8166 175.918 24.769 176.579 25.9507C178.302 29.0253 183.83 35.5097 199.612 34.9806C201.459 34.916 203.259 35.592 204.61 36.8443C209.649 41.512 221.324 53.0111 219.631 57.8494C217.914 62.7288 219.625 67.0852 220.829 69.3603C221.1 69.8717 222.616 71.9529 222.87 72.4761C224.617 75.9975 231.036 95.4977 225.549 102.693C220.068 109.889 219.271 93.4283 214.828 85.5565L197.901 55.5272C197.4 54.6336 196.704 53.8635 195.866 53.2639L166.207 32.0706C164.973 31.1829 164.053 29.9248 163.599 28.4786Z" fill="#9C6FE2" stroke="#010101" stroke-miterlimit="10"/>
<path d="M269.062 70.9064C269.062 70.9064 229.502 58.8664 254.524 1.87089C254.524 1.87089 260.335 -11.045 256.311 -21.286C252.288 -31.527 267.486 -37.7585 267.486 -37.7585C267.486 -37.7585 273.297 -67.5938 295.192 -67.5938C295.192 -67.5938 304.838 -60.6626 297.109 -50.3276C289.38 -39.9925 269.062 70.9064 269.062 70.9064Z" fill="#9C6FE2" stroke="#010101" stroke-miterlimit="10"/>
<path d="M336.451 11.3829C336.451 11.3829 384.07 -8.98148 384.702 -48.8813C384.702 -48.8813 385.014 -55.7949 366.412 -40.0866C347.809 -24.3783 319.743 -5.52471 308.703 22.7526L336.451 11.3829Z" fill="#9C6FE2" stroke="#010101" stroke-miterlimit="10"/>
<path d="M227.331 146.15C227.331 146.15 219.017 133.981 198.38 157.314C198.373 157.314 216.545 168.254 227.331 146.15Z" fill="#9C6FE2" stroke="#010101" stroke-miterlimit="10"/>
<path d="M231.903 28.0788C231.903 28.0788 246.889 -13.0556 213.366 -27.1179C213.366 -27.1179 193.955 -52.9026 185.724 -53.7844C177.494 -54.6662 177.488 -53.1965 177.488 -53.1965L218.056 -8.40542L231.903 28.0788Z" fill="#9C6FE2" stroke="#010101" stroke-miterlimit="10"/>
<path d="M245.208 210.083C245.366 202.323 246.913 191.435 245.462 182.399C244.175 174.381 237.98 157.508 226.741 147.708L227.331 146.15C227.331 146.15 244.818 164.157 249.579 180.853C249.579 180.853 235.555 118.808 226.398 112.435C225.579 111.864 224.888 111.129 224.392 110.26C218.481 99.9598 187.246 46.1329 179.275 43.7226C169.116 40.6538 164.501 30.3716 164.501 30.3716C164.501 30.3716 172.531 30.7832 180.82 33.5933C184.768 34.9278 188.42 40.7184 192.22 42.1882C214.404 50.7831 212.717 66.7618 215.944 71.3532C222.415 80.5654 226.28 99.5365 225.189 103.893C224.581 106.315 225.266 107.067 225.992 107.256C226.835 107.473 227.555 107.996 227.926 108.778C232.764 118.995 256.547 175.574 255.951 179.795C255.951 179.795 251.945 65.0981 230.452 31.7062C230.452 31.7062 221.708 -2.7734 168.159 -54.3134C168.159 -54.3134 175.446 -62.6614 194.025 -45.9654C194.025 -45.9654 215.519 -8.58171 224.622 -3.86098C224.622 -3.86098 236.28 11.0184 231.909 28.0789C231.909 28.0789 262.141 106.479 260.323 139.507C260.323 139.507 266.879 73.0816 269.067 70.9064C271.25 68.7312 252.311 57.8377 258.866 39.3311C265.421 20.8185 265.061 40.7831 271.982 -0.956824C271.982 -0.956824 275.622 -12.209 283.64 -17.2883C283.64 -17.2883 278.177 -34.7132 297.116 -50.3158C297.116 -50.3158 273.64 54.4221 273.079 66.7089C273.05 67.3556 272.985 67.9905 272.902 68.6313C271.645 78.7724 263.828 142.958 266.512 144.963C266.512 144.963 295.505 64.5631 299.659 57.4908C299.659 57.4908 279.215 33.264 320.421 16.8385C322.243 16.1154 334.262 12.8468 336.451 11.3947C338.634 9.9426 309.494 44.0635 304.762 54.9512C300.024 65.8389 267.244 152.587 271.616 157.672C271.616 157.672 290.614 108.172 307.86 91.4002C308.231 91.0415 308.166 92.5935 308.538 92.2644C308.538 92.2644 272.348 151.858 272.348 177.631C272.348 177.631 289.469 149.319 295.299 148.231C295.299 148.231 297.995 128.878 305.216 130.377C311.27 131.635 329.76 129.348 329.666 126.85C329.666 126.85 341.413 135.228 304.249 150.512C300.886 151.894 298.337 149.771 295.605 152.093C281.321 164.227 271.634 187.661 272.86 209.836C272.884 210.212 263.604 210.718 263.604 210.718C255.632 211.317 245.208 210.083 245.208 210.083Z" fill="#503659" stroke="#010101" stroke-miterlimit="10"/>
<path d="M307.913 92.3054C307.913 92.3054 317.265 94.563 327.826 87.9492C327.826 87.9492 343.968 86.1444 354.523 67.8082C354.523 67.8082 359.951 63.8988 354.523 62.3996C349.095 60.8946 326.775 70.9475 323.477 69.8599C315.447 67.2144 309.718 77.4261 307.913 92.3054Z" fill="#9C6FE2" stroke="#010101" stroke-miterlimit="10"/>
<path d="M295.287 148.22C295.287 148.22 296.189 136.949 300.349 132.335C304.373 127.873 311.618 130.066 314.002 129.63C319.854 128.554 326.238 124.775 328.698 126.003C331.165 127.232 332.398 131.835 327.772 133.369C323.147 134.903 316.881 138.172 314.721 141.553C312.568 144.927 296.213 151.905 295.287 148.22Z" fill="#9C6FE2" stroke="#010101" stroke-miterlimit="10"/>
<path d="M883.979 110.854C883.979 110.854 891.614 110.988 892.163 111.112C894.877 111.735 896.599 113.563 897.372 115.674C897.821 116.896 897.691 118.349 897.526 119.642L871.1 326.026C870.663 329.424 867.689 331.922 864.256 331.775L861.483 331.657L883.979 110.854Z" fill="#477D95" stroke="#010101" stroke-miterlimit="10"/>
<path d="M653.886 112.323L883.814 110.595C888.964 110.554 892.965 115.122 892.305 120.277L866.096 323.38C865.489 328.095 861.188 331.405 856.521 330.746L629.477 298.842C624.834 298.19 621.589 293.856 622.232 289.171L645.554 119.701C646.133 115.498 649.678 112.358 653.886 112.323Z" fill="#010101"/>
<path d="M656.799 130.942L877.885 130.483C880.073 130.477 881.766 132.387 881.489 134.551L861.264 292.48C861.016 294.427 859.246 295.82 857.288 295.615L637.388 272.51C635.347 272.299 633.89 270.44 634.18 268.413L653.218 134.04C653.466 132.27 654.994 130.947 656.799 130.942Z" fill="#D7F463"/>
<path d="M663.933 148.249L809.019 147.861C810.376 147.854 811.421 149.095 811.256 150.495L798.576 255.809C798.417 257.149 797.285 258.148 796.022 258.066L646.828 248.119C645.366 248.019 644.363 246.72 644.623 245.25L661.372 150.383C661.585 149.166 662.677 148.255 663.933 148.249Z" fill="white" stroke="#010101" stroke-miterlimit="10"/>
<path d="M620.945 290.723L860.874 319.647C861.258 319.694 861.341 320.212 860.993 320.376L733.069 381.175L471.634 335.203L612.119 291.529C614.975 290.64 617.984 290.364 620.945 290.723Z" fill="#AFC8D8" stroke="#010101" stroke-miterlimit="10"/>
<path d="M860.993 320.37L861.488 331.651L843.016 341.534L843.228 346.408L833.163 350.705L825.97 350.334L819.167 353.697L812.465 354.103C812.465 354.103 731.901 392.21 729.399 392.01C726.898 391.81 733.075 381.181 733.075 381.181L860.993 320.37Z" fill="#477D95" stroke="#010101" stroke-miterlimit="10"/>
<path d="M733.069 381.175L733.387 386.249L471.48 340.511L471.64 335.196L733.069 381.175Z" fill="#AFC8D8" stroke="#010101" stroke-miterlimit="10"/>
<path d="M471.48 340.511C471.48 340.511 479.174 347.272 491.605 350.323C504.037 353.374 721.676 391.711 721.676 391.711C721.676 391.711 732.367 394.414 733.387 386.249L471.48 340.511Z" fill="#477D95" stroke="#010101" stroke-miterlimit="10"/>
<path d="M855.559 330.623L859.383 328.906L859.217 325.226L855.299 326.854L855.559 330.623Z" fill="#AFC8D8" stroke="#010101" stroke-miterlimit="10"/>
<path d="M835.429 340.035L841.823 337.143L841.965 340.335L840.827 341.064L841.015 345.326L833.688 348.724L833.552 345.732L835.628 344.685L835.429 340.035Z" fill="#AFC8D8" stroke="#010101" stroke-miterlimit="10"/>
<path d="M825.316 344.856L831.983 341.816L832.184 345.42L825.434 348.547L825.316 344.856Z" fill="#AFC8D8" stroke="#010101" stroke-miterlimit="10"/>
<path d="M848.249 336.143L850.208 335.115C850.208 335.115 850.319 330.006 848.933 330.176C847.553 330.347 847.782 335.609 848.249 336.143Z" fill="#AFC8D8" stroke="#010101" stroke-miterlimit="10"/>
<path d="M518.923 319.647L599.901 295.473L834.59 323.01C834.59 323.01 841.83 323.592 841.906 325.385C841.983 327.178 772.605 357.943 772.605 357.943C772.605 357.943 768.139 359.465 759.501 358.16C754.704 357.431 518.923 319.647 518.923 319.647Z" fill="#477D95" stroke="#010101" stroke-miterlimit="10"/>
<path d="M566.417 347.671L598.643 335.573L648.557 344.103L622.426 357.03L566.417 347.671Z" stroke="#010101" stroke-miterlimit="10"/>
<path d="M576.979 343.644L629.949 352.863" stroke="#010101" stroke-miterlimit="10"/>
<path d="M594.141 352.228L603.05 348.272" stroke="#010101" stroke-miterlimit="10"/>
<path d="M826.867 324.956L764.835 353.315L751.66 351.269L535.661 317.742L604.407 298.254L826.867 324.956Z" stroke="#010101" stroke-miterlimit="10"/>
<path d="M604.407 298.254L614.909 299.512L607.729 301.587L597.216 300.294L604.407 298.254Z" fill="#D7F463" stroke="#010101" stroke-miterlimit="10"/>
<path d="M617.394 299.812L628.214 301.111L621.058 303.233L610.213 301.899L617.394 299.812Z" fill="#D7F463" stroke="#010101" stroke-miterlimit="10"/>
<path d="M630.775 301.417L641.938 302.757L634.805 304.932L623.619 303.551L630.775 301.417Z" fill="#D7F463" stroke="#010101" stroke-miterlimit="10"/>
<path d="M644.575 303.075L656.086 304.456L648.989 306.684L637.447 305.255L644.575 303.075Z" fill="#D7F463" stroke="#010101" stroke-miterlimit="10"/>
<path d="M658.812 304.785L670.694 306.208L663.632 308.489L651.72 307.02L658.812 304.785Z" fill="#D7F463" stroke="#010101" stroke-miterlimit="10"/>
<path d="M673.509 306.549L685.781 308.019L678.765 310.359L666.453 308.842L673.509 306.549Z" fill="#D7F463" stroke="#010101" stroke-miterlimit="10"/>
<path d="M688.683 308.372L701.368 309.894L694.4 312.293L681.675 310.717L688.683 308.372Z" fill="#D7F463" stroke="#010101" stroke-miterlimit="10"/>
<path d="M704.371 310.252L717.481 311.828L710.572 314.285L697.415 312.663L704.371 310.252Z" fill="#D7F463" stroke="#010101" stroke-miterlimit="10"/>
<path d="M720.585 312.199L734.148 313.827L727.304 316.355L713.688 314.674L720.585 312.199Z" fill="#D7F463" stroke="#010101" stroke-miterlimit="10"/>
<path d="M737.358 314.21L751.394 315.896L744.628 318.489L730.532 316.748L737.358 314.21Z" fill="#D7F463" stroke="#010101" stroke-miterlimit="10"/>
<path d="M754.717 316.296L769.253 318.042L762.575 320.705L747.972 318.906L754.717 316.296Z" fill="#D7F463" stroke="#010101" stroke-miterlimit="10"/>
<path d="M772.699 318.454L787.762 320.265L781.184 323.003L766.038 321.134L772.699 318.454Z" fill="#D7F463" stroke="#010101" stroke-miterlimit="10"/>
<path d="M791.337 320.693L806.954 322.569L800.482 325.385L784.77 323.451L791.337 320.693Z" fill="#D7F463" stroke="#010101" stroke-miterlimit="10"/>
<path d="M810.66 323.01L826.867 324.956L820.519 327.86L804.205 325.85L810.66 323.01Z" fill="#D7F463" stroke="#010101" stroke-miterlimit="10"/>
<path d="M594.844 300.965L607.942 302.598L598.785 305.255L585.663 303.562L594.844 300.965Z" fill="#D7F463" stroke="#010101" stroke-miterlimit="10"/>
<path d="M612.361 303.145L623.323 304.515L614.196 307.249L603.21 305.832L612.361 303.145Z" fill="#D7F463" stroke="#010101" stroke-miterlimit="10"/>
<path d="M625.913 304.838L637.224 306.243L628.125 309.047L616.792 307.584L625.913 304.838Z" fill="#D7F463" stroke="#010101" stroke-miterlimit="10"/>
<path d="M639.896 306.579L651.572 308.03L642.516 310.906L630.81 309.394L639.896 306.579Z" fill="#D7F463" stroke="#010101" stroke-miterlimit="10"/>
<path d="M654.334 308.377L666.394 309.883L657.384 312.822L645.289 311.258L654.334 308.377Z" fill="#D7F463" stroke="#010101" stroke-miterlimit="10"/>
<path d="M669.248 310.235L681.71 311.787L672.753 314.803L660.245 313.192L669.248 310.235Z" fill="#D7F463" stroke="#010101" stroke-miterlimit="10"/>
<path d="M683.568 312.022L696.418 313.622L687.527 316.713L674.617 315.044L683.568 312.022Z" fill="#D7F463" stroke="#010101" stroke-miterlimit="10"/>
<path d="M699.462 313.997L712.761 315.655L703.94 318.83L690.583 317.108L699.462 313.997Z" fill="#D7F463" stroke="#010101" stroke-miterlimit="10"/>
<path d="M715.906 316.05L729.67 317.766L720.932 321.023L707.104 319.242L715.906 316.05Z" fill="#D7F463" stroke="#010101" stroke-miterlimit="10"/>
<path d="M732.933 318.171L747.187 319.947L738.544 323.297L724.214 321.446L732.933 318.171Z" fill="#D7F463" stroke="#010101" stroke-miterlimit="10"/>
<path d="M750.563 320.37L765.337 322.21L756.804 325.655L741.943 323.733L750.563 320.37Z" fill="#D7F463" stroke="#010101" stroke-miterlimit="10"/>
<path d="M768.84 322.645L784.158 324.556L775.75 328.101L760.327 326.108L768.84 322.645Z" fill="#D7F463" stroke="#010101" stroke-miterlimit="10"/>
<path d="M791.461 325.462L818.413 328.823L810.253 332.551L783.101 329.047L791.461 325.462Z" fill="#D7F463" stroke="#010101" stroke-miterlimit="10"/>
<path d="M583.322 304.274L603.039 306.843L593.599 309.624L573.858 306.954L583.322 304.274Z" fill="#D7F463" stroke="#010101" stroke-miterlimit="10"/>
<path d="M608.148 307.507L619.329 308.965L609.918 311.822L598.714 310.311L608.148 307.507Z" fill="#D7F463" stroke="#010101" stroke-miterlimit="10"/>
<path d="M621.972 309.306L633.518 310.811L624.137 313.745L612.567 312.181L621.972 309.306Z" fill="#D7F463" stroke="#010101" stroke-miterlimit="10"/>
<path d="M636.25 311.17L648.174 312.722L638.834 315.732L626.875 314.115L636.25 311.17Z" fill="#D7F463" stroke="#010101" stroke-miterlimit="10"/>
<path d="M651 313.086L663.326 314.697L654.039 317.784L641.666 316.114L651 313.086Z" fill="#D7F463" stroke="#010101" stroke-miterlimit="10"/>
<path d="M666.246 315.073L678.996 316.737L669.762 319.905L656.965 318.177L666.246 315.073Z" fill="#D7F463" stroke="#010101" stroke-miterlimit="10"/>
<path d="M682.016 317.131L695.214 318.847L686.046 322.105L672.794 320.311L682.016 317.131Z" fill="#D7F463" stroke="#010101" stroke-miterlimit="10"/>
<path d="M698.335 319.253L712.001 321.034L702.908 324.379L689.185 322.528L698.335 319.253Z" fill="#D7F463" stroke="#010101" stroke-miterlimit="10"/>
<path d="M715.239 321.458L729.393 323.304L720.396 326.743L706.165 324.821L715.239 321.458Z" fill="#D7F463" stroke="#010101" stroke-miterlimit="10"/>
<path d="M732.75 323.739L747.43 325.65L738.527 329.188L723.764 327.196L732.75 323.739Z" fill="#D7F463" stroke="#010101" stroke-miterlimit="10"/>
<path d="M750.91 326.102L766.139 328.089L757.353 331.728L742.031 329.659L750.91 326.102Z" fill="#D7F463" stroke="#010101" stroke-miterlimit="10"/>
<path d="M769.749 328.559L785.555 330.617L776.906 334.368L760.988 332.222L769.749 328.559Z" fill="#D7F463" stroke="#010101" stroke-miterlimit="10"/>
<path d="M791.573 331.405L808.07 333.55L799.579 337.431L782.959 335.185L791.573 331.405Z" fill="#D7F463" stroke="#010101" stroke-miterlimit="10"/>
<path d="M597.747 311.27L608.992 312.805L599.274 315.773L588.005 314.18L597.747 311.27Z" fill="#D7F463" stroke="#010101" stroke-miterlimit="10"/>
<path d="M611.653 313.169L623.276 314.75L613.582 317.795L601.936 316.149L611.653 313.169Z" fill="#D7F463" stroke="#010101" stroke-miterlimit="10"/>
<path d="M626.025 315.126L638.037 316.766L628.385 319.883L616.338 318.184L626.025 315.126Z" fill="#D7F463" stroke="#010101" stroke-miterlimit="10"/>
<path d="M640.882 317.148L653.313 318.847L643.696 322.052L631.235 320.288L640.882 317.148Z" fill="#D7F463" stroke="#010101" stroke-miterlimit="10"/>
<path d="M656.251 319.247L669.113 320.999L659.555 324.291L646.651 322.469L656.251 319.247Z" fill="#D7F463" stroke="#010101" stroke-miterlimit="10"/>
<path d="M672.157 321.416L685.473 323.227L675.981 326.614L662.611 324.72L672.157 321.416Z" fill="#D7F463" stroke="#010101" stroke-miterlimit="10"/>
<path d="M688.63 323.657L702.43 325.538L693.014 329.018L679.149 327.06L688.63 323.657Z" fill="#D7F463" stroke="#010101" stroke-miterlimit="10"/>
<path d="M705.699 325.984L720.012 327.936L710.679 331.517L696.3 329.482L705.699 325.984Z" fill="#D7F463" stroke="#010101" stroke-miterlimit="10"/>
<path d="M723.399 328.401L738.249 330.423L729.015 334.109L714.088 331.998L723.399 328.401Z" fill="#D7F463" stroke="#010101" stroke-miterlimit="10"/>
<path d="M741.766 330.9L757.182 333.003L748.067 336.801L732.555 334.608L741.766 330.9Z" fill="#D7F463" stroke="#010101" stroke-miterlimit="10"/>
<path d="M558.854 311.163L569.42 312.675L559.337 315.591L548.77 314.027L558.854 311.163Z" fill="#D7F463" stroke="#010101" stroke-miterlimit="10"/>
<path d="M571.916 313.027L582.826 314.585L572.754 317.578L561.839 315.962L571.916 313.027Z" fill="#D7F463" stroke="#010101" stroke-miterlimit="10"/>
<path d="M590.555 315.69L603.776 317.578L593.735 320.682L580.49 318.724L590.555 315.69Z" fill="#D7F463" stroke="#010101" stroke-miterlimit="10"/>
<path d="M606.49 317.966L618.338 319.653L608.325 322.84L596.455 321.082L606.49 317.966Z" fill="#D7F463" stroke="#010101" stroke-miterlimit="10"/>
<path d="M621.146 320.052L633.406 321.804L623.423 325.079L611.133 323.257L621.146 320.052Z" fill="#D7F463" stroke="#010101" stroke-miterlimit="10"/>
<path d="M636.309 322.217L649 324.026L639.064 327.396L626.338 325.508L636.309 322.217Z" fill="#D7F463" stroke="#010101" stroke-miterlimit="10"/>
<path d="M652.003 324.456L665.148 326.331L655.272 329.794L642.079 327.842L652.003 324.456Z" fill="#D7F463" stroke="#010101" stroke-miterlimit="10"/>
<path d="M668.263 326.779L681.892 328.724L672.08 332.281L658.399 330.259L668.263 326.779Z" fill="#D7F463" stroke="#010101" stroke-miterlimit="10"/>
<path d="M685.126 329.183L699.257 331.199L689.522 334.862L675.325 332.763L685.126 329.183Z" fill="#D7F463" stroke="#010101" stroke-miterlimit="10"/>
<path d="M702.607 331.681L717.281 333.774L707.635 337.543L692.89 335.361L702.607 331.681Z" fill="#D7F463" stroke="#010101" stroke-miterlimit="10"/>
<path d="M720.755 334.268L737.524 336.661L727.99 340.558L711.133 338.066L720.755 334.268Z" fill="#D7F463" stroke="#010101" stroke-miterlimit="10"/>
<path d="M749.311 338.342L765.46 340.647L756.109 344.72L739.848 342.316L749.311 338.342Z" fill="#D7F463" stroke="#010101" stroke-miterlimit="10"/>
<path d="M769.295 341.194L786.105 343.592L776.901 347.801L759.968 345.297L769.295 341.194Z" fill="#D7F463" stroke="#010101" stroke-miterlimit="10"/>
<path d="M546.074 314.785L556.647 316.366L546.228 319.383L535.661 317.742L546.074 314.785Z" fill="#D7F463" stroke="#010101" stroke-miterlimit="10"/>
<path d="M559.149 316.743L570.064 318.371L559.656 321.464L548.729 319.771L559.149 316.743Z" fill="#D7F463" stroke="#010101" stroke-miterlimit="10"/>
<path d="M572.648 318.759L583.941 320.447L573.539 323.622L562.24 321.87L572.648 318.759Z" fill="#D7F463" stroke="#010101" stroke-miterlimit="10"/>
<path d="M586.613 320.847L598.289 322.592L587.905 325.85L576.212 324.039L586.613 320.847Z" fill="#D7F463" stroke="#010101" stroke-miterlimit="10"/>
<path d="M681.409 335.02L695.894 337.183L685.822 341.052L671.272 338.795L681.409 335.02Z" fill="#D7F463" stroke="#010101" stroke-miterlimit="10"/>
<path d="M699.333 337.701L714.378 339.953L704.401 343.932L689.273 341.587L699.333 337.701Z" fill="#D7F463" stroke="#010101" stroke-miterlimit="10"/>
<path d="M717.954 340.482L733.6 342.821L723.729 346.937L707.994 344.491L717.954 340.482Z" fill="#D7F463" stroke="#010101" stroke-miterlimit="10"/>
<path d="M737.317 343.38L753.601 345.814L749.27 347.701L732.939 345.22L737.317 343.38Z" fill="#D7F463" stroke="#010101" stroke-miterlimit="10"/>
<path d="M732.037 345.596L748.374 348.09L743.861 350.059L727.47 347.513L732.037 345.596Z" fill="#D7F463" stroke="#010101" stroke-miterlimit="10"/>
<path d="M757.471 346.39L774.434 348.929L764.835 353.315L747.754 350.664L757.471 346.39Z" fill="#D7F463" stroke="#010101" stroke-miterlimit="10"/>
<path d="M667.891 338.265L590.714 326.285L601.068 323.022L678.022 334.527L667.891 338.265Z" fill="#D7F463" stroke="#010101" stroke-miterlimit="10"/>
<path d="M776.8 347.783L736.208 341.776L745.712 337.818L786.022 343.568L776.8 347.783Z" fill="#D7F463" stroke="#010101" stroke-miterlimit="10"/>
<path d="M575.298 317.954L548.836 314.033L558.942 311.17L585.387 314.944L575.298 317.954Z" fill="#D7F463" stroke="#010101" stroke-miterlimit="10"/>
<path d="M788.47 342.51L754.304 337.684L763.395 333.839L797.32 338.465L788.47 342.51Z" fill="#D7F463" stroke="#010101" stroke-miterlimit="10"/>
<path d="M583.711 313.569L561.509 310.435L571.297 307.66L593.475 310.682L583.711 313.569Z" fill="#D7F463" stroke="#010101" stroke-miterlimit="10"/>
<path d="M761.041 126.132C762.826 126.132 764.275 124.69 764.275 122.911C764.275 121.131 762.826 119.689 761.041 119.689C759.255 119.689 757.807 121.131 757.807 122.911C757.807 124.69 759.255 126.132 761.041 126.132Z" fill="white"/>
<path d="M809.675 162.153L659.732 161.488L661.578 150.524C661.997 148.055 664.322 146.056 666.783 146.056H806.441C809.108 146.056 811.062 148.137 810.807 150.712L809.675 162.153Z" fill="#7DD8DB" stroke="#010101" stroke-miterlimit="10"/>
<path d="M712.218 176.021L857.305 175.662C858.662 175.656 859.707 176.796 859.541 178.09L846.862 275.226C846.703 276.461 845.57 277.384 844.308 277.307L695.114 268.137C693.652 268.049 692.649 266.849 692.907 265.491L709.658 177.99C709.877 176.862 710.968 176.021 712.218 176.021Z" fill="white" stroke="#010101" stroke-miterlimit="10"/>
<path d="M857.96 188.842L708.018 188.23L709.864 178.12C710.283 175.839 712.608 173.999 715.069 173.999H854.727C857.394 173.999 859.346 175.92 859.093 178.296L857.96 188.842Z" fill="#7DD8DB" stroke="#010101" stroke-miterlimit="10"/>
<path d="M821.505 355.285C821.505 355.285 814.772 341.958 834.242 336.702C847.859 333.027 860.928 363.416 831.498 384.673C828.926 386.531 824.324 387.583 821.569 385.884C819.274 384.468 817.486 381.663 818.584 376.161C821.009 364.02 825.262 378.012 828.207 377.465C832.796 376.613 843.394 360.094 840.136 350.428C836.891 340.805 828.602 350.846 828.998 353.074C829.392 355.302 824.796 359.641 821.505 355.285Z" fill="#2F7E7A" stroke="#010101" stroke-miterlimit="10"/>
<path d="M805.031 406.108H789.101C775.483 406.108 764.445 395.108 764.445 381.54V328.213H829.687V381.54C829.687 395.108 818.649 406.108 805.031 406.108Z" fill="#F1E325" stroke="#010101" stroke-miterlimit="10"/>
<path d="M797.096 337.166C815.148 337.166 829.782 333.231 829.782 328.377C829.782 323.523 815.148 319.589 797.096 319.589C779.044 319.589 764.41 323.523 764.41 328.377C764.41 333.231 779.044 337.166 797.096 337.166Z" fill="#010101" stroke="#010101" stroke-miterlimit="10"/>
<path d="M215.621 280.864C215.621 280.864 205.668 286.026 215.951 300.658L88.4764 301.27C88.4764 301.27 71.0773 283.615 88.3702 277.19C105.663 270.765 215.621 280.864 215.621 280.864Z" fill="white" stroke="#010101" stroke-miterlimit="10"/>
<path d="M218.252 276.843L217.863 281.206L88.3703 277.19C88.3703 277.19 73.7796 283.604 88.4765 301.27L216.235 301.217L216.117 305.073L86.795 305.597C86.795 305.597 66.2748 288.401 87.0133 272.428L218.252 276.843Z" fill="#477D95" stroke="#010101" stroke-miterlimit="10"/>
<path d="M92.7716 284.333L146.727 286.043" stroke="#010101" stroke-miterlimit="10"/>
<path d="M479.231 154.84C479.231 154.84 476.532 104.645 487.434 102.136C498.336 99.6269 517.133 117.641 517.133 117.641L479.231 154.84Z" fill="#010101"/>
<path d="M582.208 118.852C582.208 118.852 602.338 98.7929 616.595 102.136C630.854 105.479 619.958 145.11 619.958 145.11L582.208 118.852Z" fill="#010101"/>
<path d="M503.065 330.611L604.193 350.772C604.193 350.772 621.103 355.216 622.635 345.706C623.709 339.028 615.285 342.34 611.512 340.766C598.825 335.48 573.09 325.569 573.09 325.569L552.129 310.662L529.669 298.745L503.065 330.611Z" fill="#010101"/>
<path d="M583.352 298.21L622.019 336.637C622.58 337.179 624.806 337.282 625.565 337.368C627.68 337.597 630.996 341.915 628.162 346.878C626.606 349.6 621.467 349.38 618.293 348.444C616.991 348.058 615.996 347.429 614.819 346.713L603.846 340.066C603.736 340.004 603.625 339.941 603.515 339.886L577.976 324.522C571.613 321.124 573.532 323.704 574.779 320.999L580.802 303.472C581.876 300.358 581.031 296.007 583.352 298.21Z" fill="#010101"/>
<path d="M402.654 298.745C393.568 297.817 384.489 296.715 375.529 294.93C372.237 294.277 368.961 293.529 365.74 292.586C364.437 292.2 363.142 291.791 361.863 291.32C361.35 291.13 360.829 290.933 360.324 290.721C362.124 291.469 360.316 290.69 360.04 290.533C359.337 290.148 358.571 289.565 357.83 289.266C356.4 288.683 359.156 290.233 358.066 289.447C357.782 289.243 357.513 288.904 357.277 288.637C357.458 288.841 358.453 290.328 357.852 289.258C357.403 288.464 358.571 291.256 358.255 290.148C358.714 291.76 358.571 291.091 358.255 292.46C358.587 291.028 357.861 294.214 358.248 292.562C358.058 293.365 357.387 293.372 358.327 292.538C358.761 292.153 359.163 291.729 359.606 291.359C358.611 292.193 360.687 290.635 360.679 290.642C361.35 290.202 362.045 289.793 362.739 289.392C366.813 287.04 371.155 285.208 375.537 283.516C379.508 281.982 382.263 278.23 381.047 273.841C380.005 270.056 375.331 266.8 371.337 268.35C362.36 271.819 349.966 275.886 344.605 284.633C340.604 291.17 343.312 298.178 349.13 302.34C354.387 306.107 361.224 307.861 367.445 309.278C379.002 311.905 390.868 313.274 402.647 314.478C406.894 314.91 410.541 310.553 410.541 306.611C410.549 301.994 406.918 299.177 402.654 298.745Z" fill="#010101"/>
<path d="M633.285 236.421C611.669 254.466 592.778 261.09 575.607 265.73C577.652 275.028 586.257 299.5 586.392 303.527C586.779 315.445 576.12 325.694 573.129 325.694C570.137 325.694 531.627 294.152 531.627 306.509C531.627 318.867 516.652 326.545 503.396 329.95C490.134 333.364 419.904 326.379 410.991 320.999C396.647 312.33 391.373 265.636 423.456 258.903C440.88 255.245 461.894 267.288 489.699 264.307C497.665 263.457 508.307 261.112 511.962 259.233C484.031 245.671 465.44 231.827 461.887 226.942C458.792 222.694 461.761 215.575 468.361 214.946C476.705 214.151 472.339 183.45 479.231 154.84C486.123 126.222 517.141 117.633 517.141 117.633C551.032 109.625 579.176 115.918 588.941 117.633C598.707 119.347 626.448 136.92 628.841 172.154C629.204 177.417 631.651 207.324 635.669 211.902C637.619 214.128 642.908 211.863 645.19 218.226C647.179 223.764 636.356 233.856 633.285 236.421Z" fill="#F07F2E" stroke="#010101" stroke-miterlimit="10"/>
<path d="M527.909 175.41C528.145 174.962 528.43 174.522 528.714 174.104C528.856 173.9 528.998 173.695 529.14 173.499C529.22 173.389 529.306 173.278 529.385 173.168C529.559 172.925 529.03 173.593 529.401 173.153C529.812 172.665 530.23 172.185 530.687 171.736C530.933 171.5 531.177 171.272 531.438 171.052C531.516 170.981 531.943 170.643 531.658 170.863C531.375 171.084 531.856 170.722 531.958 170.651C532.243 170.454 532.543 170.273 532.851 170.109C533.001 170.03 533.166 169.958 533.316 169.873C533.601 169.731 532.883 170.006 533.443 169.833C533.782 169.731 534.113 169.652 534.461 169.566C534.879 169.464 534.004 169.573 534.437 169.573C534.642 169.573 534.848 169.55 535.053 169.55C535.234 169.55 535.424 169.582 535.606 169.582C535.913 169.582 535.171 169.448 535.456 169.566C535.527 169.597 535.622 169.597 535.7 169.613C535.89 169.668 536.087 169.707 536.277 169.77C536.364 169.794 536.442 169.833 536.529 169.857C537.074 170.014 536.253 169.715 536.553 169.864C537.034 170.1 537.493 170.367 537.935 170.675C538.022 170.737 538.116 170.8 538.195 170.863C537.879 170.62 538.282 170.95 538.338 170.997C538.582 171.218 538.827 171.43 539.056 171.666C540.184 172.783 541.085 174.058 541.921 175.403C543.524 177.975 547.63 175.607 546.011 173.019C543.24 168.582 539.032 163.988 533.269 164.996C529.795 165.601 527.08 168.331 525.082 171.052C524.625 171.681 524.183 172.335 523.819 173.019C523.219 174.144 523.535 175.583 524.672 176.245C525.738 176.881 527.309 176.543 527.909 175.41Z" fill="#010101"/>
<path d="M605.623 171.642C605.851 171.209 606.12 170.793 606.396 170.391C606.53 170.195 606.665 169.998 606.807 169.809C606.885 169.707 606.965 169.597 607.044 169.495C607.218 169.251 606.681 169.936 607.044 169.503C607.438 169.031 607.834 168.574 608.276 168.141C608.504 167.914 608.749 167.693 608.994 167.481C609.073 167.41 609.491 167.08 609.191 167.308C608.891 167.536 609.364 167.183 609.467 167.119C609.743 166.93 610.028 166.757 610.32 166.6C610.47 166.521 610.62 166.45 610.77 166.38C611.046 166.238 610.312 166.521 610.864 166.348C611.188 166.246 611.512 166.175 611.835 166.089C612.246 165.987 611.354 166.096 611.78 166.096C611.978 166.096 612.175 166.073 612.372 166.073C612.546 166.073 612.727 166.105 612.901 166.105C613.209 166.105 612.444 165.971 612.736 166.089C612.807 166.12 612.893 166.12 612.973 166.136C613.154 166.183 613.343 166.23 613.526 166.286C613.604 166.309 613.683 166.341 613.762 166.364C614.251 166.505 613.524 166.199 613.762 166.364C614.181 166.647 614.662 166.852 615.088 167.135C615.175 167.19 615.261 167.253 615.341 167.316C615.002 167.056 615.396 167.371 615.459 167.426C615.688 167.638 615.925 167.843 616.146 168.063C617.251 169.156 618.049 170.297 618.878 171.618C619.549 172.696 620.994 173.121 622.115 172.468C623.196 171.839 623.638 170.328 622.967 169.243C620.291 164.948 616.217 160.543 610.651 161.51C607.296 162.101 604.676 164.736 602.756 167.363C602.314 167.961 601.896 168.59 601.549 169.243C600.949 170.367 601.265 171.808 602.401 172.468C603.452 173.113 605.022 172.775 605.623 171.642Z" fill="#010101"/>
<path d="M545.325 198.537L517.804 197.648" stroke="#010101" stroke-miterlimit="10"/>
<path d="M545.774 207.96L521.885 211.492" stroke="#010101" stroke-miterlimit="10"/>
<path d="M617.82 194.439L645.34 193.558" stroke="#010101" stroke-miterlimit="10"/>
<path d="M617.37 203.87L641.267 207.394" stroke="#010101" stroke-miterlimit="10"/>
<path d="M510.92 258.973C514.031 258.761 536.956 276.137 575.711 265.589C576.153 265.47 576.618 265.604 576.95 265.966C577.511 266.588 578.41 267.697 579.137 269.152C580.581 272.031 579.176 275.367 576.476 276.523C557.048 284.838 517.046 279.276 501.605 262.883C500.625 261.86 507.431 259.209 510.92 258.973Z" fill="#010101" stroke="#010101" stroke-miterlimit="10"/>
<path d="M578.449 205.082C578.449 205.082 591.76 223.449 603.026 204.743" stroke="#010101" stroke-miterlimit="10"/>
<path d="M590.852 191.363V212.106" stroke="#010101" stroke-miterlimit="10"/>
<path d="M590.608 192.307C596.179 192.307 600.697 189.133 600.697 185.22C600.697 181.305 596.179 178.132 590.608 178.132C585.035 178.132 580.518 181.305 580.518 185.22C580.518 189.133 585.035 192.307 590.608 192.307Z" fill="#010101"/>
<path d="M423.456 258.903C423.456 258.903 405.355 290.478 443.762 288.189C445.893 288.062 447.732 286.584 448.253 284.515C449.185 280.817 452.011 275.799 460.577 279.354C473.358 284.664 474.952 291.556 483.478 287.316C492.005 283.076 493.229 274.242 491.468 269.278C489.707 264.314 489.707 264.314 489.707 264.314L478.221 265.172C476.776 265.148 469.245 264.716 467.823 264.471L439.254 258.824C439.246 258.816 427.388 257.628 423.456 258.903Z" fill="#010101" stroke="#010101" stroke-miterlimit="10"/>
<path d="M480.423 152.826C482.531 153.66 511.141 173.043 502.188 182.278C492.778 191.992 484.031 187.304 489.115 199.576C491.128 204.437 478.804 207.174 491.089 209.755C497.475 211.091 496.086 218.061 489.067 221.483C476.523 227.587 470.57 216.96 468.889 215.473C468.787 215.379 468.874 215.284 469 215.229C469.908 214.844 472.655 213.074 473.042 208.275C476.595 164.5 480.336 152.787 480.423 152.826Z" fill="#010101" stroke="#010101" stroke-miterlimit="10"/>
<path d="M633.932 210.438C633.932 210.438 624.751 207.433 623.717 218.289C622.683 229.145 623.195 233.282 618.53 234.831C613.864 236.382 616.13 247.11 618.206 247.11C620.282 247.11 640.288 232.999 643.888 224.126C649.019 211.492 635.645 216.315 633.932 210.438Z" fill="#010101" stroke="#010101" stroke-miterlimit="10"/>
<path d="M569.915 295.661C574.751 295.661 578.671 291.756 578.671 286.938C578.671 282.12 574.751 278.214 569.915 278.214C565.08 278.214 561.16 282.12 561.16 286.938C561.16 291.756 565.08 295.661 569.915 295.661Z" fill="#F1E325" stroke="#010101" stroke-miterlimit="10"/>
<path d="M263.813 339.789L188.446 326.425C186.888 326.149 187.113 325.503 188.942 324.985L286.309 297.389C287.826 296.961 290.286 296.79 291.808 297.007L365.175 307.484C366.868 307.725 367.057 308.307 365.582 308.777L270.249 339.3C268.45 339.882 265.559 340.094 263.813 339.789Z" fill="#F4CED3" stroke="#010101" stroke-miterlimit="10"/>
<path d="M298.983 300.03C297.909 300.341 296.151 300.464 295.053 300.306C293.956 300.147 293.944 299.765 295.018 299.459C296.092 299.154 297.838 299.03 298.935 299.183C300.026 299.341 300.05 299.718 298.983 300.03Z" fill="#010101"/>
<path d="M290.734 298.836C289.66 299.141 287.909 299.265 286.823 299.106C285.743 298.948 285.737 298.572 286.81 298.265C287.885 297.96 289.625 297.837 290.711 297.995C291.79 298.154 291.803 298.53 290.734 298.836Z" fill="#010101"/>
<path d="M307.248 301.222C306.181 301.534 304.411 301.658 303.301 301.499C302.192 301.34 302.163 300.952 303.236 300.64C304.304 300.329 306.063 300.206 307.172 300.364C308.281 300.523 308.316 300.906 307.248 301.222Z" fill="#010101"/>
<path d="M315.986 302.48C314.918 302.798 313.143 302.922 312.016 302.763C310.895 302.598 310.853 302.21 311.922 301.899C312.989 301.582 314.754 301.457 315.875 301.622C317.001 301.775 317.048 302.164 315.986 302.48Z" fill="#010101"/>
<path d="M324.518 303.709C323.456 304.027 321.668 304.157 320.529 303.992C319.391 303.827 319.337 303.433 320.405 303.116C321.467 302.798 323.243 302.675 324.382 302.833C325.514 302.998 325.58 303.392 324.518 303.709Z" fill="#010101"/>
<path d="M333.793 305.05C332.731 305.373 330.937 305.503 329.781 305.332C328.63 305.167 328.56 304.768 329.622 304.445C330.684 304.122 332.465 303.997 333.616 304.162C334.772 304.333 334.849 304.726 333.793 305.05Z" fill="#010101"/>
<path d="M342.53 306.308C341.474 306.638 339.669 306.766 338.501 306.596C337.338 306.425 337.25 306.026 338.312 305.703C339.368 305.38 341.162 305.25 342.329 305.415C343.492 305.585 343.581 305.984 342.53 306.308Z" fill="#010101"/>
<path d="M351.699 307.631C350.643 307.96 348.832 308.089 347.652 307.918C346.472 307.749 346.371 307.343 347.427 307.013C348.478 306.684 350.283 306.555 351.463 306.726C352.643 306.895 352.755 307.301 351.699 307.631Z" fill="#010101"/>
<path d="M360.66 308.924C359.611 309.259 357.787 309.389 356.59 309.218C355.398 309.047 355.28 308.636 356.336 308.301C357.387 307.971 359.198 307.837 360.389 308.013C361.582 308.183 361.705 308.589 360.66 308.924Z" fill="#010101"/>
<path d="M359.564 308.601L358.23 308.412L362.561 307.037L363.894 307.225L359.564 308.601Z" fill="#010101"/>
<path d="M290.033 298.454L288.829 298.278L293.26 297.013L294.463 297.189L290.033 298.454Z" fill="#010101"/>
<path d="M298.345 299.617L297.124 299.441L301.549 298.166L302.764 298.337L298.345 299.617Z" fill="#010101"/>
<path d="M306.558 300.818L305.319 300.64L309.732 299.347L310.965 299.523L306.558 300.818Z" fill="#010101"/>
<path d="M314.759 302.223L313.508 302.046L317.91 300.741L319.161 300.917L314.759 302.223Z" fill="#010101"/>
<path d="M323.309 303.451L322.046 303.268L326.436 301.951L327.697 302.128L323.309 303.451Z" fill="#010101"/>
<path d="M332.659 304.797L331.379 304.609L335.757 303.281L337.032 303.463L332.659 304.797Z" fill="#010101"/>
<path d="M341.326 306.049L340.028 305.861L344.389 304.515L345.687 304.697L341.326 306.049Z" fill="#010101"/>
<path d="M350.572 307.314L349.256 307.125L353.605 305.767L354.915 305.955L350.572 307.314Z" fill="#010101"/>
<path d="M287.395 305.003C287.105 305.091 286.816 305.174 286.521 305.262C286.22 305.35 286.257 305.885 286.598 305.837C288.593 305.579 290.581 305.332 292.581 305.115C292.705 305.103 294.657 304.873 294.439 304.668C294.392 304.621 290.64 306.32 291.012 306.173C290.717 306.291 290.741 306.737 291.088 306.748C291.678 306.967 292.168 306.866 292.563 306.443C292.345 306.555 292.404 306.831 292.563 306.949C293.573 307.725 297.714 307.396 298.575 306.796C298.357 306.949 298.404 307.367 298.723 307.343C299.454 307.284 307.833 307.09 307.143 308.454C307.025 308.683 307.219 308.948 307.473 308.882C308.682 308.607 309.903 308.448 311.142 308.407C311.573 308.383 312.01 308.383 312.44 308.395C313.213 308.225 313.674 308.572 313.815 309.43C313.467 309.571 313.591 310.065 313.974 309.994C315.886 309.648 317.809 309.412 319.756 309.324C320.423 309.295 321.089 309.271 321.751 309.277C322.229 309.271 322.712 309.283 323.191 309.312C324.229 309.2 324.347 309.918 323.55 311.452C323.35 311.605 323.373 312.028 323.698 311.999C327.834 311.611 331.969 311.44 336.123 311.547C336.501 311.558 336.501 310.97 336.123 310.958C332.672 310.87 329.237 310.994 325.798 311.222C323.309 311.387 326.141 310.888 325.745 309.518C325.468 308.559 323.337 308.724 322.719 308.7C319.745 308.583 316.741 308.895 313.827 309.43C313.88 309.618 313.933 309.806 313.987 309.994C314.647 309.723 315.709 309.424 315.314 308.518C314.717 307.137 309.909 307.778 308.941 308.001C307.189 308.401 308.417 308.254 307.224 307.36C305.856 306.337 300.682 306.037 299.449 306.895C299.685 306.731 299.608 306.355 299.301 306.349C297.814 306.314 294.546 306.109 293.265 306.743C293.536 306.608 293.396 306.197 293.118 306.197C291.442 306.184 292.056 306.473 292.646 306.131C293.536 305.615 294.563 305.262 295.483 304.779C295.732 304.65 295.631 304.203 295.336 304.232C293.868 304.379 292.404 304.539 290.94 304.703C290.215 304.785 289.489 304.873 288.764 304.961C287.985 304.726 287.577 304.921 287.555 305.556C287.914 305.461 287.761 304.891 287.395 305.003Z" fill="#010101"/>
<path d="M275.524 308.93C276.433 309.242 275.866 308.765 275.359 308.924C274.71 309.124 274.12 309.371 273.518 309.688C273.264 309.817 273.377 310.258 273.666 310.235C274.616 310.164 275.56 310.082 276.498 309.947C277.016 309.883 277.53 309.795 278.038 309.688C278.751 309.817 279.111 309.571 279.105 308.948C278.893 309.053 278.934 309.336 279.105 309.453C280.327 310.3 282.339 309.683 283.72 309.488C283.666 309.301 283.613 309.112 283.56 308.924C283.359 308.994 283.159 309.071 282.964 309.141C282.84 309.189 282.746 309.288 282.746 309.424C282.746 309.501 282.746 309.576 282.746 309.659C282.746 309.788 282.84 309.905 282.964 309.942C283.619 310.141 285.689 310.553 286.109 309.929C285.984 310.118 286.15 310.377 286.362 310.37C287.164 310.353 288.528 310.559 289.248 310.052C289.118 310.147 289.059 310.306 289.141 310.452C290.446 312.733 295.431 311.222 297.371 311.746C298.688 312.098 299.832 312.739 301.265 312.857C302.57 312.963 305.408 313.075 306.452 312.381C306.216 312.54 306.299 312.928 306.599 312.928C307.903 312.933 309.19 312.974 310.488 313.069C310.865 313.098 310.865 312.511 310.488 312.48C309.857 312.434 307.803 312.675 307.384 312.48C307.195 312.392 307.089 312.863 307.384 312.245C307.473 312.069 307.372 311.782 307.13 311.804C303.585 312.169 301.071 312.34 297.661 311.24C296.847 310.976 296.611 310.941 295.584 311.017C294.794 311.075 293.997 311.146 293.206 311.117C292.983 311.111 289.731 310.423 289.979 310.252C290.203 310.094 290.144 309.7 289.832 309.706C289.583 309.712 287.07 309.541 286.847 309.883C286.965 309.706 286.81 309.418 286.593 309.442C285.849 309.518 284.356 309.259 283.72 309.488C284.085 309.354 283.932 308.871 283.56 308.924C283.513 308.93 280.339 308.983 279.848 309.23C280.15 309.077 279.937 308.607 279.619 308.695C278.356 309.047 277.099 309.189 275.819 309.442C273.218 309.959 276.504 309.224 276.964 309.106C277.294 309.024 277.212 308.537 276.887 308.53C276.48 308.478 276.072 308.425 275.672 308.372C275.318 308.243 275.165 308.807 275.524 308.93Z" fill="#010101"/>
<path d="M295.437 316.638C294.758 316.737 294.923 316.655 294.458 316.937C294.298 317.031 294.257 317.266 294.399 317.402C294.823 317.813 295.454 317.719 296.014 317.736C296.445 317.754 298.44 317.501 298.204 317.337C298.127 317.284 297.69 317.872 297.838 317.696C297.644 317.931 297.832 318.236 298.127 318.189C299.46 317.971 300.8 317.795 302.145 317.69C302.541 317.66 304.947 317.154 303.885 317.854C303.691 317.978 303.691 318.348 303.957 318.389C304.877 318.548 305.749 318.559 306.57 318.913C307.296 319.224 306.73 318.559 305.786 319.277C305.579 319.435 305.609 319.841 305.933 319.824C307.13 319.753 308.328 319.683 309.525 319.618C310.163 319.582 311.561 319.159 311.207 319.406C311.066 319.506 310.995 319.736 311.148 319.87C311.555 320.23 312.021 320.135 312.564 320.1C312.942 320.076 312.942 319.488 312.564 319.512C312.128 319.541 311.544 319.876 311.974 319.594C312.116 319.501 312.193 319.259 312.033 319.13C311.597 318.783 311.107 318.948 310.552 318.965C309.72 318.994 308.8 318.994 307.986 319.112C307.261 319.218 304.947 319.9 307.685 319.053C307.998 318.959 307.95 318.471 307.608 318.478C306.824 318.489 306.988 318.154 306.317 318.019C305.738 317.901 304.823 318.219 305.325 317.495C305.432 317.349 305.325 317.102 305.148 317.066C303.254 316.684 300.233 317.308 299.159 317.648C299.466 317.549 299.425 317.06 299.082 317.073C297.939 317.102 296.74 317.037 295.601 317.207C295.968 317.148 295.808 316.584 295.437 316.638Z" fill="#010101"/>
<path d="M262.296 304.151L342.312 316.249" stroke="#010101" stroke-miterlimit="10"/>
<path d="M250.916 307.419L331.256 319.865" stroke="#010101" stroke-miterlimit="10"/>
<path d="M239.369 310.693L319.916 323.48" stroke="#010101" stroke-miterlimit="10"/>
<path d="M227.847 313.956L308.677 327.095" stroke="#010101" stroke-miterlimit="10"/>
<path d="M214.53 317.736L295.566 331.275" stroke="#010101" stroke-miterlimit="10"/>
<path d="M202.051 321.27L283.412 335.227" stroke="#010101" stroke-miterlimit="10"/>
<path d="M302.764 298.337L199.107 328.307" stroke="#010101" stroke-miterlimit="10"/>
<path d="M320.169 317.348C313.225 314.762 305.384 314.021 298.02 313.827C295.714 313.769 282.409 312.88 283.371 317.936C283.79 320.164 287.684 321.064 289.366 321.528C293.106 322.557 297.017 323.086 300.876 323.416C306.081 323.857 317.155 324.792 319.609 318.601C319.957 317.719 318.53 317.337 318.187 318.213C316.93 321.376 311.88 321.775 308.989 322.028C305.974 322.292 302.917 322.151 299.915 321.852C296.776 321.546 293.637 321.088 290.575 320.323C288.657 319.841 282.138 317.831 286.716 316.179C291.82 314.333 298.57 315.167 303.868 315.644C309.23 316.12 314.706 316.878 319.78 318.765C320.671 319.1 321.054 317.677 320.169 317.348Z" fill="#EB1E32"/>
</g>
</g>
<defs>
<clipPath id="clip0_177_717">
<rect width="944" height="480" rx="16" fill="white"/>
</clipPath>
</defs>
</svg>
